<svg version="1.1" id="Layer_1" xmlns="http://www.w3.org/2000/svg" xmlns:xlink="http://www.w3.org/1999/xlink" x="0px" y="0px"
	 width="100%" viewBox="0 0 498 403" enable-background="new 0 0 498 403" xml:space="preserve">
<path fill="#FEFEFE" opacity="1.000000" stroke="none" 
	d="
M346.000000,404.000000 
	C230.698502,404.000000 115.897018,404.000000 1.047762,404.000000 
	C1.047762,269.735779 1.047762,135.471512 1.047762,1.103634 
	C166.884827,1.103634 332.769714,1.103634 498.827332,1.103634 
	C498.827332,135.333145 498.827332,269.666565 498.827332,404.000000 
	C448.138153,404.000000 397.319092,404.000000 346.000000,404.000000 
M325.142334,166.070129 
	C325.082153,139.049850 325.021942,112.029587 325.237427,84.275742 
	C324.072083,82.665581 323.258301,80.456604 321.688660,79.535072 
	C298.035919,65.648430 274.290253,51.919872 250.536102,38.206650 
	C249.331070,37.510990 247.851929,37.290154 246.570984,36.159828 
	C245.007156,36.073147 243.443344,35.986465 241.175095,35.991631 
	C231.351639,41.547043 221.501282,47.055546 211.710892,52.668625 
	C196.154541,61.587460 180.623245,70.550339 165.120270,79.561523 
	C162.651062,80.996758 160.165710,82.668655 161.425964,87.041237 
	C161.558411,92.352028 161.794296,97.662613 161.805099,102.973656 
	C161.848083,124.092262 161.804291,145.211044 161.847061,166.329651 
	C161.851028,168.286270 162.239548,170.242081 162.257629,172.964783 
	C163.006958,174.700424 163.265167,177.271912 164.580276,178.044632 
	C180.789276,187.568573 197.122406,196.883240 213.488846,206.136322 
	C221.700562,210.779022 230.045486,215.186142 238.466232,219.684616 
	C238.466232,219.684616 238.578796,219.606750 238.632858,219.936539 
	C238.728149,220.155762 238.886154,220.311722 239.465347,221.036591 
	C241.350403,221.436920 243.235458,221.837250 245.852264,222.199127 
	C264.831909,211.333466 283.845276,200.526093 302.773071,189.570847 
	C309.477631,185.690323 315.973633,181.449493 322.847565,177.394882 
	C322.847565,177.394882 323.037415,177.184204 323.727997,177.132111 
	C324.142487,176.420135 324.556976,175.708145 325.200836,174.271149 
	C325.155670,173.523422 325.110535,172.775711 325.246857,171.196060 
	C325.151733,169.794510 325.056610,168.392944 325.142334,166.070129 
M314.964966,252.360794 
	C312.019989,251.979721 310.532104,253.115173 309.664948,256.148041 
	C305.962463,269.097351 301.987762,281.969116 298.071777,294.856812 
	C297.695984,296.093567 297.039093,297.244934 296.118622,299.327515 
	C291.414642,284.380707 287.034576,270.657867 282.809448,256.887451 
	C281.867981,253.819077 280.599304,252.097046 276.958801,252.277664 
	C270.809845,252.582748 264.634125,252.409714 258.470886,252.335434 
	C256.023315,252.305939 254.301102,252.596848 254.258408,255.739731 
	C254.219696,258.589264 254.968613,260.190704 258.068207,260.187561 
	C261.617645,260.183960 262.871002,261.787262 262.570282,265.533661 
	C261.331329,280.967560 260.316650,296.421326 259.423859,311.879608 
	C259.232513,315.192566 258.497528,317.065491 254.771286,317.482117 
	C253.518021,317.622192 252.508301,319.940552 251.387268,321.263306 
	C252.661896,322.143097 253.901718,323.716370 255.217194,323.782410 
	C260.867371,324.065979 266.541260,323.980774 272.203369,323.869629 
	C274.298279,323.828491 277.216156,324.951172 277.482483,321.159149 
	C277.716125,317.832214 275.319336,317.315613 272.925507,317.157715 
	C269.721832,316.946411 269.263397,315.090210 269.365692,312.412384 
	C269.645386,305.088806 269.699768,297.756500 269.991180,290.433533 
	C270.310211,282.415955 270.794678,274.404968 271.207062,266.391083 
	C272.213318,266.934937 272.557190,267.605133 272.798065,268.310516 
	C278.711212,285.628052 284.551331,302.971161 290.615662,320.235535 
	C291.209412,321.925842 293.170532,323.135864 294.496979,324.568817 
	C295.771271,323.131897 297.671661,321.899902 298.219818,320.225250 
	C302.255463,307.896606 306.006775,295.475067 309.878204,283.092377 
	C311.525970,277.822052 313.247131,272.574646 315.309509,266.149902 
	C316.553589,281.952271 317.596619,296.332397 318.877045,310.691376 
	C319.209229,314.416656 319.298370,317.217957 314.425781,317.641907 
	C313.386230,317.732361 312.548920,320.146851 311.618408,321.490662 
	C312.827393,322.294617 314.014557,323.752655 315.248993,323.793884 
	C322.071930,324.021637 328.911346,324.039612 335.732727,323.790253 
	C337.092194,323.740570 338.397766,322.216339 339.728210,321.372040 
	C338.595398,320.029785 337.588531,317.698517 336.305542,317.535095 
	C332.789948,317.087250 331.972412,315.103027 331.728912,312.177734 
	C330.431244,296.587402 329.186035,280.991760 327.714722,265.417572 
	C327.366577,261.732361 328.534698,260.042633 332.195892,260.136017 
	C335.528015,260.221008 335.775208,258.147614 335.762634,255.518127 
	C335.746765,252.203995 333.622803,252.340225 331.359192,252.353043 
	C326.194824,252.382278 321.030182,252.361832 314.964966,252.360794 
M56.887558,324.536896 
	C60.581699,323.120178 64.601700,322.232941 67.913437,320.194824 
	C82.109047,311.458618 88.305222,290.719025 82.287338,273.226654 
	C75.533432,253.594894 54.315453,245.705917 36.479935,256.429718 
	C23.694628,264.117004 18.863876,276.088776 18.955318,290.563110 
	C19.096819,312.961304 33.663212,326.421173 56.887558,324.536896 
M396.235321,265.680542 
	C395.997253,277.985382 396.109528,290.310944 395.381897,302.586792 
	C394.983612,309.305695 392.207123,315.266754 384.747131,317.307709 
	C374.104095,320.219513 364.906097,314.487427 363.904602,303.413391 
	C362.933441,292.675018 363.108490,281.831329 362.834564,271.032532 
	C362.743286,267.433990 362.820190,263.831207 362.820190,260.205170 
	C364.534698,259.958130 365.506714,259.706696 366.480652,259.699036 
	C369.192719,259.677765 370.859894,258.856537 370.896301,255.679428 
	C370.938446,251.997192 368.571167,252.333847 366.189056,252.340912 
	C359.363617,252.361145 352.534241,252.232224 345.716309,252.459213 
	C344.536652,252.498459 342.382019,254.100433 342.456085,254.789352 
	C342.632599,256.430878 343.562195,258.296906 344.786652,259.417938 
	C345.671417,260.227966 347.518707,259.986725 349.251831,260.264893 
	C349.251831,265.239960 349.137146,269.880005 349.275208,274.512543 
	C349.581940,284.804657 349.397156,295.164978 350.583618,305.361206 
	C351.616882,314.240906 357.027985,320.593567 365.954346,323.148956 
	C369.277802,324.100403 372.751434,324.680725 376.197113,325.024872 
	C391.100586,326.513397 402.796234,318.075928 404.428162,303.238861 
	C405.785889,290.894714 405.356171,278.353394 405.699860,265.898895 
	C405.752808,263.980988 405.707306,262.060364 405.707306,260.213043 
	C407.166840,259.944458 407.819397,259.707062 408.464600,259.725616 
	C411.543121,259.814209 412.457581,258.187439 412.431641,255.337402 
	C412.400299,251.898224 410.081360,252.347168 407.931732,252.345901 
	C402.604523,252.342773 397.267273,252.170425 391.957428,252.474457 
	C390.692078,252.546936 388.825165,254.002945 388.451111,255.201981 
	C387.738037,257.487610 388.641602,259.712036 391.589020,259.585297 
	C395.414276,259.420746 396.678375,261.213440 396.235321,265.680542 
M116.174965,252.080154 
	C109.188087,252.176224 102.201408,252.294785 95.214226,252.354797 
	C93.097061,252.372986 91.150276,252.319244 91.218117,255.344635 
	C91.269287,257.626587 91.140289,259.894592 94.329430,259.847687 
	C98.329376,259.788849 98.725647,262.223724 98.706139,265.442047 
	C98.614380,280.584686 98.581749,295.728973 98.726364,310.870789 
	C98.761871,314.588867 98.529625,317.320251 93.802422,317.560455 
	C92.733994,317.614685 91.778008,319.881714 90.770279,321.130157 
	C92.006668,322.052582 93.221748,323.738892 94.482864,323.774109 
	C102.963097,324.010529 111.455872,324.003876 119.937096,323.785278 
	C121.282982,323.750610 122.591072,322.249664 123.916641,321.426636 
	C122.793449,320.129944 121.880890,318.026215 120.512497,317.669098 
	C112.338104,315.535675 112.302834,315.670776 112.301582,306.956543 
	C112.301392,305.625275 112.299866,304.294006 112.301704,302.962738 
	C112.310570,296.528656 112.310783,296.520660 118.926559,296.425293 
	C125.475449,296.330841 131.878342,295.688690 137.562027,291.951263 
	C146.028992,286.383636 148.945328,278.359741 147.636841,268.657196 
	C146.444183,259.813721 140.857727,254.616089 132.463150,252.926804 
	C127.482605,251.924561 122.225197,252.298157 116.174965,252.080154 
M431.078613,254.525787 
	C417.445007,261.952332 416.063873,275.217224 427.956421,285.253418 
	C430.103424,287.065247 432.527405,288.567841 434.908356,290.079620 
	C440.373566,293.549835 446.084015,296.670227 451.321350,300.450226 
	C454.982758,303.092804 456.020447,307.053528 454.517639,311.610046 
	C453.042847,316.081604 449.585968,318.098541 445.478912,318.257538 
	C436.286041,318.613464 430.417511,318.969269 427.168488,307.510345 
	C426.986969,306.870026 426.990906,305.902435 426.572235,305.654022 
	C425.149902,304.810120 423.593536,303.785126 422.053345,303.724915 
	C421.325073,303.696442 420.176331,305.604767 419.835175,306.810211 
	C419.441772,308.200165 419.711243,309.783020 419.724152,311.281830 
	C419.819824,322.392700 418.095947,321.438477 429.820312,323.713379 
	C440.264496,325.739929 451.093048,326.642303 460.664307,319.896515 
	C470.407837,313.029327 471.685486,300.898529 462.887085,292.881927 
	C458.288513,288.691986 452.454437,285.865173 447.211639,282.372742 
	C443.486755,279.891418 439.578522,277.606812 436.191711,274.718903 
	C432.926575,271.934723 431.755981,267.948425 433.346893,263.809753 
	C434.917328,259.724365 438.625793,258.530273 442.647614,258.289001 
	C451.016510,257.786896 452.510620,258.684845 456.070312,266.074097 
	C456.431488,266.823761 456.662506,267.953613 457.256409,268.212128 
	C458.827759,268.896179 460.620178,269.655029 462.213562,269.462799 
	C463.023560,269.365112 464.023407,267.336487 464.181763,266.085114 
	C464.492920,263.625885 464.724243,260.986206 464.129059,258.639130 
	C463.691132,256.912018 462.152710,254.569565 460.647583,254.152985 
	C451.072174,251.502991 441.377350,250.417984 431.078613,254.525787 
M168.075256,324.183044 
	C176.900497,324.182190 185.729828,324.314911 194.546768,324.043884 
	C195.952194,324.000702 197.301910,322.145172 198.677383,321.127533 
	C197.451523,319.889282 196.369659,318.432770 194.946381,317.493713 
	C194.078064,316.920776 192.683701,317.027618 191.526642,317.033478 
	C188.823685,317.047119 187.644958,315.839233 187.653641,313.089722 
	C187.706177,296.438446 187.716995,279.786743 187.650360,263.135559 
	C187.639862,260.512085 188.686417,259.739136 191.211212,259.676300 
	C199.041519,259.481201 200.056442,260.144775 203.532715,267.555908 
	C204.057144,268.673981 206.006485,269.977112 207.023315,269.780487 
	C208.130661,269.566406 209.593781,267.773560 209.720032,266.547333 
	C210.093384,262.920624 210.144485,259.205658 209.752533,255.586853 
	C209.625336,254.412476 207.751968,252.507080 206.659836,252.494827 
	C189.177948,252.298813 171.693039,252.323975 154.209732,252.438507 
	C153.231583,252.444916 151.492157,253.581253 151.412140,254.330948 
	C150.888596,259.236725 150.724854,264.180878 150.441681,269.145386 
	C154.976120,270.339600 157.637421,269.471130 158.793732,264.995178 
	C159.232437,263.296997 160.664047,260.874146 162.026978,260.583832 
	C165.793701,259.781555 169.762817,259.929565 174.142975,259.673096 
	C174.142975,262.341217 174.142944,264.140625 174.142975,265.940063 
	C174.143219,280.260345 174.144867,294.580658 174.143097,308.900940 
	C174.142227,316.017090 174.103683,315.868317 167.042709,317.563416 
	C165.571960,317.916504 164.473312,319.819641 163.203186,321.008423 
	C164.539642,322.064545 165.876114,323.120636 168.075256,324.183044 
M223.134689,280.500183 
	C223.135132,290.814911 223.026993,301.131409 223.196106,311.443390 
	C223.253708,314.955109 222.613724,317.012115 218.539230,317.433868 
	C217.101334,317.582672 215.895599,319.974426 214.583847,321.342163 
	C216.044357,322.291473 217.475281,324.002930 218.970398,324.061005 
	C226.279449,324.344757 233.611359,324.339111 240.921021,324.062225 
	C242.437042,324.004791 243.892975,322.361511 245.376602,321.449127 
	C244.106628,320.057831 242.947876,317.619904 241.545914,317.470947 
	C237.292343,317.019043 236.576889,314.879852 236.617844,311.137299 
	C236.783463,295.999786 236.754013,280.858856 236.639175,265.720398 
	C236.611282,262.044403 236.640610,259.145599 241.668961,259.376923 
	C242.613220,259.420349 244.242325,256.873322 244.467484,255.359848 
	C244.590607,254.532166 242.464478,252.527695 241.302979,252.487473 
	C233.659241,252.222626 225.997803,252.220856 218.353226,252.471512 
	C217.078384,252.513321 215.857697,254.206512 214.611984,255.136627 
	C215.757431,256.622894 216.647964,258.495178 218.129028,259.473206 
	C219.312027,260.254425 221.213974,259.946930 223.134827,260.160217 
	C223.134827,266.906464 223.134827,273.203430 223.134689,280.500183 
M262.856842,359.351959 
	C268.696686,355.968872 272.654358,357.897522 273.047943,364.407318 
	C273.208221,367.058289 272.823242,369.763306 273.190857,372.372650 
	C273.408234,373.915558 274.612122,375.319519 275.372345,376.785950 
	C276.211151,375.252563 277.522308,373.794312 277.780792,372.168640 
	C278.193542,369.572601 277.734100,366.850677 277.957703,364.208588 
	C278.264954,360.577972 279.711334,357.719696 283.989685,357.702209 
	C288.283813,357.684662 289.744720,360.565063 290.037476,364.179962 
	C290.291718,367.319702 289.928497,370.513062 290.240936,373.642517 
	C290.353668,374.771423 291.637787,375.783386 292.387360,376.848724 
	C293.211395,375.765930 294.609558,374.750854 294.746887,373.587036 
	C295.095306,370.634369 294.937561,367.613831 294.877441,364.622589 
	C294.675934,354.596741 286.274750,349.954376 277.557587,354.933807 
	C276.595978,355.483124 274.614716,355.859497 274.106567,355.339203 
	C269.406586,350.526978 263.560181,354.628510 258.444824,353.253052 
	C258.026184,353.140503 256.371277,355.346771 256.324585,356.516846 
	C256.099243,362.160736 256.074097,367.826569 256.359009,373.465363 
	C256.417389,374.620575 258.107971,375.693298 259.046204,376.804047 
	C259.688416,375.626892 260.723419,374.506134 260.902008,373.262421 
	C261.532959,368.867706 261.870728,364.430908 262.856842,359.351959 
M367.633087,375.092072 
	C372.019226,378.037964 376.413666,377.850616 380.484375,374.668213 
	C381.536285,373.845886 381.793884,372.007538 382.416351,370.635956 
	C381.012390,370.747406 379.431152,370.478760 378.235291,371.036407 
	C373.204712,373.382263 369.549225,372.326416 367.201752,366.985474 
	C372.047272,366.985474 376.618958,367.054626 381.187592,366.965881 
	C385.687378,366.878510 386.729065,365.258057 385.232300,360.974670 
	C383.403870,355.742218 379.494263,352.962372 373.946289,352.949921 
	C368.322693,352.937286 364.094604,355.940186 362.263458,361.247375 
	C360.488678,366.391174 361.926422,370.407745 367.633087,375.092072 
M204.060745,371.095947 
	C198.187180,373.285400 195.398361,372.308472 194.031250,366.981445 
	C198.788467,366.981445 203.387909,366.955109 207.986893,366.990021 
	C211.480301,367.016541 212.284363,365.065033 211.652802,362.086487 
	C210.299774,355.705322 204.071167,351.860626 197.139526,353.084961 
	C192.905716,353.832733 188.705490,358.257782 188.079391,362.629913 
	C187.237747,368.507416 189.844116,373.444641 195.223572,376.163208 
	C198.856277,377.999054 204.556107,377.122162 207.209305,374.084290 
	C207.951859,373.234131 208.054886,371.825439 208.451309,370.672943 
	C207.201096,370.687469 205.950882,370.702026 204.060745,371.095947 
M321.791382,361.341431 
	C318.264496,353.927612 312.508331,351.099426 305.786224,353.477539 
	C300.650635,355.294342 297.139282,361.588501 298.168335,367.132690 
	C299.287628,373.163025 305.240875,377.462738 311.749542,376.930542 
	C314.880615,376.674530 318.010071,376.398682 321.908325,376.066284 
	C321.908325,371.683258 321.908325,366.933136 321.791382,361.341431 
M155.583344,372.214508 
	C150.670029,371.736053 148.720535,368.723633 148.660568,364.105408 
	C148.628174,361.611023 148.905029,359.063477 148.468903,356.643280 
	C148.236313,355.352600 146.783844,354.281769 145.881973,353.111694 
	C145.052460,354.212067 143.627182,355.252167 143.508621,356.424438 
	C143.192764,359.547363 143.051025,362.789093 143.542633,365.871552 
	C144.588669,372.430450 150.172165,377.078583 156.238525,376.965485 
	C159.413620,376.906281 162.610031,377.057861 165.750458,376.703400 
	C166.569473,376.610962 167.810730,374.999268 167.842728,374.051086 
	C168.044586,368.069977 168.051239,362.076691 167.882156,356.094208 
	C167.853638,355.085449 166.659164,354.109650 166.003418,353.118622 
	C165.077164,354.082275 163.519348,354.947296 163.350403,356.029205 
	C162.944321,358.629456 163.158249,361.331665 163.178925,363.992310 
	C163.215073,368.642395 161.248688,371.607391 155.583344,372.214508 
M112.103386,366.743652 
	C112.129051,369.238861 111.931870,371.766937 112.292244,374.212830 
	C112.432480,375.164673 113.829857,375.931274 114.654594,376.782257 
	C115.331367,375.949585 116.519844,375.159180 116.592735,374.276642 
	C116.852211,371.135406 116.819023,367.960541 116.737724,364.802490 
	C116.559059,357.862793 111.075462,352.785645 104.061172,352.945526 
	C101.023613,353.014771 97.971588,352.911163 94.956123,353.199585 
	C94.075157,353.283875 92.597946,354.431183 92.581299,355.119934 
	C92.424744,361.595062 92.449623,368.078827 92.652962,374.552856 
	C92.677261,375.326691 94.077560,376.057343 94.840065,376.808014 
	C95.545349,375.861023 96.731697,374.974670 96.860214,373.954987 
	C97.170082,371.496185 96.972610,368.974854 97.002487,366.479034 
	C97.067986,361.008453 99.715561,357.795532 104.257225,357.652679 
	C109.055313,357.501740 111.496208,360.051758 112.103386,366.743652 
M140.662399,370.366180 
	C139.419174,364.465454 136.877441,362.499908 130.773758,362.080627 
	C129.122711,361.967194 127.545082,360.784546 125.933746,360.092651 
	C127.612640,359.274719 129.236252,358.293091 130.991226,357.700470 
	C132.039307,357.346558 133.452530,357.944397 134.413910,357.496643 
	C135.581848,356.952698 136.446823,355.758209 137.442841,354.845154 
	C136.433487,354.205200 135.479950,353.159576 134.402939,353.011383 
	C132.285568,352.720062 130.094757,352.835541 127.942970,352.948029 
	C123.670425,353.171387 121.085533,355.785858 121.103279,359.844025 
	C121.121483,364.008026 123.489624,366.226837 127.398750,366.872498 
	C129.020752,367.140381 130.842484,366.632385 132.327881,367.163727 
	C133.636459,367.631775 134.603058,369.055939 135.720673,370.057922 
	C134.584763,370.785919 133.506744,372.000305 132.301254,372.143799 
	C129.517014,372.475189 126.646149,372.083771 123.863708,372.422852 
	C122.916695,372.538208 122.129158,373.962341 121.268753,374.788452 
	C122.170258,375.508026 123.010155,376.728790 123.985374,376.848663 
	C126.438438,377.150208 128.970566,376.765137 131.438400,376.999176 
	C136.124771,377.443726 139.052277,375.430511 140.662399,370.366180 
M236.093872,372.282654 
	C235.137115,373.334564 234.180359,374.386475 233.223602,375.438354 
	C234.324966,375.943207 235.396347,376.782288 236.533859,376.884399 
	C239.013596,377.106995 241.527725,376.993195 244.026505,376.946899 
	C248.907700,376.856476 251.865067,374.220795 251.986099,369.915680 
	C252.102356,365.780579 249.096329,362.672394 244.451523,362.216370 
	C243.129456,362.086578 241.691177,362.449707 240.484436,362.049438 
	C239.473999,361.714264 238.723434,360.595612 237.857803,359.823914 
	C238.777069,359.101501 239.604630,357.990509 240.636902,357.746887 
	C242.221603,357.372894 244.035645,357.906464 245.584503,357.465424 
	C246.802643,357.118591 247.767227,355.881378 248.844452,355.039673 
	C247.748444,354.331665 246.718475,353.189758 245.541946,353.010651 
	C243.427063,352.688690 241.206573,352.773743 239.061920,352.995483 
	C234.978226,353.417694 232.560043,356.034729 232.638382,359.924103 
	C232.713959,363.676117 234.750870,366.590576 239.049850,366.913116 
	C240.543274,367.025208 242.175323,366.657196 243.509003,367.147614 
	C244.852631,367.641693 245.904236,368.929871 247.083771,369.870087 
	C245.877716,370.664581 244.754868,371.908722 243.446579,372.150848 
	C241.351212,372.538727 239.132904,372.262360 236.093872,372.282654 
M345.036438,353.604980 
	C345.043213,358.746857 344.513245,363.969757 345.272003,368.998169 
	C345.681519,371.712158 347.849487,374.668335 350.086670,376.402527 
	C351.363281,377.392181 354.462097,376.425537 356.560699,375.767029 
	C357.404449,375.502258 357.766815,373.703400 358.348267,372.602783 
	C357.252686,372.174255 355.904938,371.106049 355.102966,371.422241 
	C350.321655,373.307312 350.046265,370.204926 349.921509,366.978699 
	C349.808594,364.058899 349.897614,361.131256 349.897614,359.270294 
	C352.942963,357.460846 354.987762,356.245911 357.032593,355.030945 
	C357.005157,354.487823 356.977753,353.944733 356.950317,353.401611 
	C351.470673,353.583282 348.951080,351.362701 349.713531,346.104706 
	C349.816956,345.391632 348.511322,344.474243 347.858093,343.651489 
	C347.015015,344.339783 345.592102,344.920074 345.439941,345.737030 
	C345.020782,347.987732 345.133728,350.337524 345.036438,353.604980 
M177.415161,363.486969 
	C179.579712,361.519623 181.780258,359.589905 183.892899,357.568329 
	C184.879456,356.624268 185.695847,355.502350 186.589371,354.461060 
	C185.489487,353.955872 184.411743,353.085388 183.285370,353.017151 
	C180.433472,352.844299 177.532196,352.821960 174.710281,353.192780 
	C173.770889,353.316193 172.315170,354.793060 172.283844,355.692566 
	C172.070435,361.822174 172.051025,367.967896 172.305206,374.094513 
	C172.344406,375.039307 174.110428,375.912415 175.077835,376.818695 
	C175.680374,375.792664 176.699539,374.808167 176.806671,373.732788 
	C177.117935,370.608398 177.063644,367.447601 177.415161,363.486969 
M389.193024,367.416840 
	C389.193512,368.078644 389.057159,368.776062 389.218506,369.396027 
	C389.881104,371.941895 387.396667,375.737335 391.890686,376.500763 
	C392.157349,376.546051 393.784515,371.933350 393.791718,369.485291 
	C393.808838,363.671326 393.958069,358.368011 401.445160,357.285339 
	C402.184814,357.178375 402.717590,355.640778 403.346375,354.767181 
	C402.487427,354.163483 401.648193,353.077820 400.766022,353.041779 
	C397.416962,352.904785 393.025177,351.864410 390.995422,353.544434 
	C389.094604,355.117737 389.645569,359.701233 389.211456,362.972443 
	C389.060455,364.110321 389.190247,365.285522 389.193024,367.416840 
M334.425049,358.792175 
	C335.327545,358.414001 336.334259,358.180817 337.108368,357.624115 
	C338.303925,356.764221 339.340332,355.683044 340.444244,354.695740 
	C338.894989,354.164307 337.375458,353.343292 335.788391,353.180450 
	C334.096405,353.006866 332.171509,353.997467 330.647247,353.521790 
	C327.291321,352.474518 326.335815,353.917450 326.310364,356.800751 
	C326.264984,361.936981 326.092682,367.087219 326.422455,372.202667 
	C326.524170,373.780212 328.085480,375.263672 328.978485,376.790192 
	C329.636078,375.319183 330.697968,373.895111 330.875122,372.368347 
	C331.395081,367.887329 329.700256,362.956421 334.425049,358.792175 
M88.037529,366.432739 
	C88.037170,360.305603 88.177498,354.172760 87.928268,348.055756 
	C87.872475,346.686462 86.451454,345.372742 85.658958,344.033447 
	C84.870438,345.443604 83.494736,346.816345 83.401962,348.270874 
	C83.107430,352.888885 83.290909,357.537415 83.290543,362.174164 
	C83.290298,365.320526 82.998116,368.505432 83.404449,371.598511 
	C83.640755,373.397278 84.998627,375.048706 85.851837,376.766449 
	C86.579521,375.136688 87.536545,373.564331 87.963409,371.859283 
	C88.314568,370.456573 88.036682,368.896423 88.037529,366.432739 
z"/>
<path fill="#7F6991" opacity="1.000000" stroke="none" 
	d="
M241.879517,35.899780 
	C243.443344,35.986465 245.007156,36.073147 246.729889,36.819294 
	C253.081299,45.621227 259.197968,53.822750 265.483398,61.892857 
	C275.946930,75.327408 286.549835,88.653564 296.983032,102.111412 
	C297.779419,103.138680 297.697510,104.846840 297.620178,106.135696 
	C281.406006,109.871750 265.588348,113.681282 249.786789,117.556519 
	C227.524261,123.016251 205.273697,128.524689 182.743378,133.981689 
	C182.285355,133.933823 182.101944,133.916580 181.951447,133.598480 
	C182.007690,132.893784 182.031006,132.489944 182.184494,131.770218 
	C199.679489,104.021202 217.072525,76.605850 234.379761,49.136421 
	C237.080109,44.850502 239.389389,40.318169 241.879517,35.899780 
z"/>
<path fill="#5541B1" opacity="1.000000" stroke="none" 
	d="
M315.415283,252.361191 
	C321.030182,252.361832 326.194824,252.382278 331.359192,252.353043 
	C333.622803,252.340225 335.746765,252.203995 335.762634,255.518127 
	C335.775208,258.147614 335.528015,260.221008 332.195892,260.136017 
	C328.534698,260.042633 327.366577,261.732361 327.714722,265.417572 
	C329.186035,280.991760 330.431244,296.587402 331.728912,312.177734 
	C331.972412,315.103027 332.789948,317.087250 336.305542,317.535095 
	C337.588531,317.698517 338.595398,320.029785 339.728210,321.372040 
	C338.397766,322.216339 337.092194,323.740570 335.732727,323.790253 
	C328.911346,324.039612 322.071930,324.021637 315.248993,323.793884 
	C314.014557,323.752655 312.827393,322.294617 311.618408,321.490662 
	C312.548920,320.146851 313.386230,317.732361 314.425781,317.641907 
	C319.298370,317.217957 319.209229,314.416656 318.877045,310.691376 
	C317.596619,296.332397 316.553589,281.952271 315.309509,266.149902 
	C313.247131,272.574646 311.525970,277.822052 309.878204,283.092377 
	C306.006775,295.475067 302.255463,307.896606 298.219818,320.225250 
	C297.671661,321.899902 295.771271,323.131897 294.496979,324.568817 
	C293.170532,323.135864 291.209412,321.925842 290.615662,320.235535 
	C284.551331,302.971161 278.711212,285.628052 272.798065,268.310516 
	C272.557190,267.605133 272.213318,266.934937 271.207062,266.391083 
	C270.794678,274.404968 270.310211,282.415955 269.991180,290.433533 
	C269.699768,297.756500 269.645386,305.088806 269.365692,312.412384 
	C269.263397,315.090210 269.721832,316.946411 272.925507,317.157715 
	C275.319336,317.315613 277.716125,317.832214 277.482483,321.159149 
	C277.216156,324.951172 274.298279,323.828491 272.203369,323.869629 
	C266.541260,323.980774 260.867371,324.065979 255.217194,323.782410 
	C253.901718,323.716370 252.661896,322.143097 251.387268,321.263306 
	C252.508301,319.940552 253.518021,317.622192 254.771286,317.482117 
	C258.497528,317.065491 259.232513,315.192566 259.423859,311.879608 
	C260.316650,296.421326 261.331329,280.967560 262.570282,265.533661 
	C262.871002,261.787262 261.617645,260.183960 258.068207,260.187561 
	C254.968613,260.190704 254.219696,258.589264 254.258408,255.739731 
	C254.301102,252.596848 256.023315,252.305939 258.470886,252.335434 
	C264.634125,252.409714 270.809845,252.582748 276.958801,252.277664 
	C280.599304,252.097046 281.867981,253.819077 282.809448,256.887451 
	C287.034576,270.657867 291.414642,284.380707 296.118622,299.327515 
	C297.039093,297.244934 297.695984,296.093567 298.071777,294.856812 
	C301.987762,281.969116 305.962463,269.097351 309.664948,256.148041 
	C310.532104,253.115173 312.019989,251.979721 315.415283,252.361191 
z"/>
<path fill="#BFB4C8" opacity="1.000000" stroke="none" 
	d="
M241.527313,35.945705 
	C239.389389,40.318169 237.080109,44.850502 234.379761,49.136421 
	C217.072525,76.605850 199.679489,104.021202 181.798462,131.753693 
	C180.132477,130.650192 178.487045,129.424667 177.911636,127.816315 
	C173.495087,115.471214 169.348038,103.029747 164.939896,90.681534 
	C164.349594,89.027916 162.766113,87.728859 161.642548,86.265617 
	C160.165710,82.668655 162.651062,80.996758 165.120270,79.561523 
	C180.623245,70.550339 196.154541,61.587460 211.710892,52.668625 
	C221.501282,47.055546 231.351639,41.547043 241.527313,35.945705 
z"/>
<path fill="#6B4E7F" opacity="1.000000" stroke="none" 
	d="
M181.918549,133.899338 
	C182.101944,133.916580 182.285355,133.933823 182.775787,134.333359 
	C184.136841,135.678864 185.044754,136.918732 186.266647,137.564087 
	C206.833618,148.426620 227.471207,159.155670 248.020935,170.050507 
	C255.772659,174.160248 263.341095,178.615738 270.877655,183.241776 
	C266.284607,190.115341 261.734589,196.612686 257.350281,203.219971 
	C253.183563,209.499374 249.190140,215.893753 245.120514,222.237579 
	C243.235458,221.837250 241.350403,221.436920 239.586823,220.593140 
	C239.815628,219.946198 239.922958,219.742691 240.030289,219.539185 
	C239.546463,219.561707 239.062622,219.584229 238.578796,219.606750 
	C238.578796,219.606750 238.466232,219.684616 238.593750,219.297485 
	C238.322296,217.674408 238.189621,216.253464 237.480652,215.232834 
	C233.228043,209.110611 228.837997,203.083954 224.503250,197.018677 
	C215.352997,184.215424 206.337875,171.312881 197.012314,158.638687 
	C191.537659,151.198181 185.572800,144.118362 179.891357,136.568756 
	C180.609039,135.473907 181.263794,134.686615 181.918549,133.899338 
z"/>
<path fill="#523DB0" opacity="1.000000" stroke="none" 
	d="
M56.447701,324.592651 
	C33.663212,326.421173 19.096819,312.961304 18.955318,290.563110 
	C18.863876,276.088776 23.694628,264.117004 36.479935,256.429718 
	C54.315453,245.705917 75.533432,253.594894 82.287338,273.226654 
	C88.305222,290.719025 82.109047,311.458618 67.913437,320.194824 
	C64.601700,322.232941 60.581699,323.120178 56.447701,324.592651 
M68.400047,276.386871 
	C67.625061,274.017517 67.050797,271.558167 66.036774,269.295959 
	C63.196178,262.958740 58.922859,258.436798 51.304066,258.611237 
	C43.624962,258.787018 38.838894,262.988129 36.542591,269.930389 
	C32.323864,282.684570 32.069870,295.467865 37.769474,307.904449 
	C41.383396,315.790070 46.736641,319.069489 54.184135,318.345551 
	C61.766846,317.608459 65.459274,312.555328 67.378319,305.850983 
	C70.078644,296.417236 70.584839,286.852814 68.400047,276.386871 
z"/>
<path fill="#573A6F" opacity="1.000000" stroke="none" 
	d="
M179.828430,136.876312 
	C185.572800,144.118362 191.537659,151.198181 197.012314,158.638687 
	C206.337875,171.312881 215.352997,184.215424 224.503250,197.018677 
	C228.837997,203.083954 233.228043,209.110611 237.480652,215.232834 
	C238.189621,216.253464 238.322296,217.674408 238.525726,219.305084 
	C230.045486,215.186142 221.700562,210.779022 213.488846,206.136322 
	C197.122406,196.883240 180.789276,187.568573 164.580276,178.044632 
	C163.265167,177.271912 163.006958,174.700424 162.673157,172.490723 
	C163.988663,170.461487 165.013016,168.964218 165.768326,167.341721 
	C170.488449,157.202148 175.148499,147.034592 179.828430,136.876312 
z"/>
<path fill="#5844B3" opacity="1.000000" stroke="none" 
	d="
M396.233734,265.203979 
	C396.678375,261.213440 395.414276,259.420746 391.589020,259.585297 
	C388.641602,259.712036 387.738037,257.487610 388.451111,255.201981 
	C388.825165,254.002945 390.692078,252.546936 391.957428,252.474457 
	C397.267273,252.170425 402.604523,252.342773 407.931732,252.345901 
	C410.081360,252.347168 412.400299,251.898224 412.431641,255.337402 
	C412.457581,258.187439 411.543121,259.814209 408.464600,259.725616 
	C407.819397,259.707062 407.166840,259.944458 405.707306,260.213043 
	C405.707306,262.060364 405.752808,263.980988 405.699860,265.898895 
	C405.356171,278.353394 405.785889,290.894714 404.428162,303.238861 
	C402.796234,318.075928 391.100586,326.513397 376.197113,325.024872 
	C372.751434,324.680725 369.277802,324.100403 365.954346,323.148956 
	C357.027985,320.593567 351.616882,314.240906 350.583618,305.361206 
	C349.397156,295.164978 349.581940,284.804657 349.275208,274.512543 
	C349.137146,269.880005 349.251831,265.239960 349.251831,260.264893 
	C347.518707,259.986725 345.671417,260.227966 344.786652,259.417938 
	C343.562195,258.296906 342.632599,256.430878 342.456085,254.789352 
	C342.382019,254.100433 344.536652,252.498459 345.716309,252.459213 
	C352.534241,252.232224 359.363617,252.361145 366.189056,252.340912 
	C368.571167,252.333847 370.938446,251.997192 370.896301,255.679428 
	C370.859894,258.856537 369.192719,259.677765 366.480652,259.699036 
	C365.506714,259.706696 364.534698,259.958130 362.820190,260.205170 
	C362.820190,263.831207 362.743286,267.433990 362.834564,271.032532 
	C363.108490,281.831329 362.933441,292.675018 363.904602,303.413391 
	C364.906097,314.487427 374.104095,320.219513 384.747131,317.307709 
	C392.207123,315.266754 394.983612,309.305695 395.381897,302.586792 
	C396.109528,290.310944 395.997253,277.985382 396.233734,265.203979 
z"/>
<path fill="#543FB0" opacity="1.000000" stroke="none" 
	d="
M116.633621,252.066650 
	C122.225197,252.298157 127.482605,251.924561 132.463150,252.926804 
	C140.857727,254.616089 146.444183,259.813721 147.636841,268.657196 
	C148.945328,278.359741 146.028992,286.383636 137.562027,291.951263 
	C131.878342,295.688690 125.475449,296.330841 118.926559,296.425293 
	C112.310783,296.520660 112.310570,296.528656 112.301704,302.962738 
	C112.299866,304.294006 112.301392,305.625275 112.301582,306.956543 
	C112.302834,315.670776 112.338104,315.535675 120.512497,317.669098 
	C121.880890,318.026215 122.793449,320.129944 123.916641,321.426636 
	C122.591072,322.249664 121.282982,323.750610 119.937096,323.785278 
	C111.455872,324.003876 102.963097,324.010529 94.482864,323.774109 
	C93.221748,323.738892 92.006668,322.052582 90.770279,321.130157 
	C91.778008,319.881714 92.733994,317.614685 93.802422,317.560455 
	C98.529625,317.320251 98.761871,314.588867 98.726364,310.870789 
	C98.581749,295.728973 98.614380,280.584686 98.706139,265.442047 
	C98.725647,262.223724 98.329376,259.788849 94.329430,259.847687 
	C91.140289,259.894592 91.269287,257.626587 91.218117,255.344635 
	C91.150276,252.319244 93.097061,252.372986 95.214226,252.354797 
	C102.201408,252.294785 109.188087,252.176224 116.633621,252.066650 
M119.416573,289.815277 
	C124.883415,289.871094 129.883545,288.635986 132.389679,283.246185 
	C135.318054,276.948242 136.125168,270.198975 132.267654,264.113800 
	C128.575516,258.289551 122.206116,258.468384 116.096878,258.639923 
	C113.144295,258.722839 112.001106,260.000488 112.056824,262.958923 
	C112.185188,269.775879 112.431908,276.619171 111.984695,283.409210 
	C111.639961,288.643341 113.700676,290.395935 119.416573,289.815277 
z"/>
<path fill="#745B87" opacity="1.000000" stroke="none" 
	d="
M323.037415,177.184204 
	C323.037415,177.184204 322.847565,177.394882 322.319946,177.181824 
	C317.911041,177.129196 314.004364,177.061829 310.153259,177.492004 
	C297.721191,178.880676 285.309540,180.452454 272.913635,181.562531 
	C276.660492,170.039810 280.361664,158.900803 284.112640,147.778549 
	C288.707977,134.152390 293.344940,120.540291 298.312561,106.930740 
	C299.354187,107.017067 300.047119,107.094765 300.804199,107.551880 
	C303.999023,116.903923 307.129730,125.876556 310.217834,135.212296 
	C311.049927,137.105560 311.924652,138.635742 312.849304,140.503189 
	C313.012543,141.512802 313.125824,142.185120 313.198181,143.172516 
	C313.674713,144.063309 314.192200,144.639053 314.771301,145.576660 
	C315.294006,147.581879 315.755127,149.225220 316.184021,151.230896 
	C317.019226,153.126526 317.886658,154.659790 318.809143,156.528473 
	C318.976959,157.534210 319.089752,158.204575 319.168274,159.189484 
	C319.650940,160.078506 320.167877,160.652969 320.745972,161.589233 
	C321.260834,163.594650 321.714600,165.238235 322.148315,167.252411 
	C323.107300,169.091324 324.086334,170.559662 325.065369,172.027985 
	C325.110535,172.775711 325.155670,173.523422 324.754211,174.682114 
	C323.884216,175.790115 323.460815,176.487167 323.037415,177.184204 
z"/>
<path fill="#5541B1" opacity="1.000000" stroke="none" 
	d="
M431.418671,254.360229 
	C441.377350,250.417984 451.072174,251.502991 460.647583,254.152985 
	C462.152710,254.569565 463.691132,256.912018 464.129059,258.639130 
	C464.724243,260.986206 464.492920,263.625885 464.181763,266.085114 
	C464.023407,267.336487 463.023560,269.365112 462.213562,269.462799 
	C460.620178,269.655029 458.827759,268.896179 457.256409,268.212128 
	C456.662506,267.953613 456.431488,266.823761 456.070312,266.074097 
	C452.510620,258.684845 451.016510,257.786896 442.647614,258.289001 
	C438.625793,258.530273 434.917328,259.724365 433.346893,263.809753 
	C431.755981,267.948425 432.926575,271.934723 436.191711,274.718903 
	C439.578522,277.606812 443.486755,279.891418 447.211639,282.372742 
	C452.454437,285.865173 458.288513,288.691986 462.887085,292.881927 
	C471.685486,300.898529 470.407837,313.029327 460.664307,319.896515 
	C451.093048,326.642303 440.264496,325.739929 429.820312,323.713379 
	C418.095947,321.438477 419.819824,322.392700 419.724152,311.281830 
	C419.711243,309.783020 419.441772,308.200165 419.835175,306.810211 
	C420.176331,305.604767 421.325073,303.696442 422.053345,303.724915 
	C423.593536,303.785126 425.149902,304.810120 426.572235,305.654022 
	C426.990906,305.902435 426.986969,306.870026 427.168488,307.510345 
	C430.417511,318.969269 436.286041,318.613464 445.478912,318.257538 
	C449.585968,318.098541 453.042847,316.081604 454.517639,311.610046 
	C456.020447,307.053528 454.982758,303.092804 451.321350,300.450226 
	C446.084015,296.670227 440.373566,293.549835 434.908356,290.079620 
	C432.527405,288.567841 430.103424,287.065247 427.956421,285.253418 
	C416.063873,275.217224 417.445007,261.952332 431.418671,254.360229 
z"/>
<path fill="#5743B1" opacity="1.000000" stroke="none" 
	d="
M167.643921,324.179901 
	C165.876114,323.120636 164.539642,322.064545 163.203186,321.008423 
	C164.473312,319.819641 165.571960,317.916504 167.042709,317.563416 
	C174.103683,315.868317 174.142227,316.017090 174.143097,308.900940 
	C174.144867,294.580658 174.143219,280.260345 174.142975,265.940063 
	C174.142944,264.140625 174.142975,262.341217 174.142975,259.673096 
	C169.762817,259.929565 165.793701,259.781555 162.026978,260.583832 
	C160.664047,260.874146 159.232437,263.296997 158.793732,264.995178 
	C157.637421,269.471130 154.976120,270.339600 150.441681,269.145386 
	C150.724854,264.180878 150.888596,259.236725 151.412140,254.330948 
	C151.492157,253.581253 153.231583,252.444916 154.209732,252.438507 
	C171.693039,252.323975 189.177948,252.298813 206.659836,252.494827 
	C207.751968,252.507080 209.625336,254.412476 209.752533,255.586853 
	C210.144485,259.205658 210.093384,262.920624 209.720032,266.547333 
	C209.593781,267.773560 208.130661,269.566406 207.023315,269.780487 
	C206.006485,269.977112 204.057144,268.673981 203.532715,267.555908 
	C200.056442,260.144775 199.041519,259.481201 191.211212,259.676300 
	C188.686417,259.739136 187.639862,260.512085 187.650360,263.135559 
	C187.716995,279.786743 187.706177,296.438446 187.653641,313.089722 
	C187.644958,315.839233 188.823685,317.047119 191.526642,317.033478 
	C192.683701,317.027618 194.078064,316.920776 194.946381,317.493713 
	C196.369659,318.432770 197.451523,319.889282 198.677383,321.127533 
	C197.301910,322.145172 195.952194,324.000702 194.546768,324.043884 
	C185.729828,324.314911 176.900497,324.182190 167.643921,324.179901 
z"/>
<path fill="#4D2D65" opacity="1.000000" stroke="none" 
	d="
M300.740082,107.172462 
	C300.047119,107.094765 299.354187,107.017067 298.318115,106.759476 
	C297.975037,106.579582 298.023834,106.238510 298.023834,106.238510 
	C297.697510,104.846840 297.779419,103.138680 296.983032,102.111412 
	C286.549835,88.653564 275.946930,75.327408 265.483398,61.892857 
	C259.197968,53.822750 253.081299,45.621227 246.694611,37.163498 
	C247.851929,37.290154 249.331070,37.510990 250.536102,38.206650 
	C274.290253,51.919872 298.035919,65.648430 321.688660,79.535072 
	C323.258301,80.456604 324.072083,82.665581 324.749329,84.681122 
	C316.734131,91.357452 309.172943,97.588646 301.734192,103.962753 
	C301.014465,104.579453 301.053345,106.081429 300.740082,107.172462 
z"/>
<path fill="#5844B2" opacity="1.000000" stroke="none" 
	d="
M223.134766,280.000305 
	C223.134827,273.203430 223.134827,266.906464 223.134827,260.160217 
	C221.213974,259.946930 219.312027,260.254425 218.129028,259.473206 
	C216.647964,258.495178 215.757431,256.622894 214.611984,255.136627 
	C215.857697,254.206512 217.078384,252.513321 218.353226,252.471512 
	C225.997803,252.220856 233.659241,252.222626 241.302979,252.487473 
	C242.464478,252.527695 244.590607,254.532166 244.467484,255.359848 
	C244.242325,256.873322 242.613220,259.420349 241.668961,259.376923 
	C236.640610,259.145599 236.611282,262.044403 236.639175,265.720398 
	C236.754013,280.858856 236.783463,295.999786 236.617844,311.137299 
	C236.576889,314.879852 237.292343,317.019043 241.545914,317.470947 
	C242.947876,317.619904 244.106628,320.057831 245.376587,321.449097 
	C243.892975,322.361511 242.437042,324.004791 240.921021,324.062225 
	C233.611359,324.339111 226.279449,324.344757 218.970398,324.061005 
	C217.475281,324.002930 216.044357,322.291473 214.583847,321.342163 
	C215.895599,319.974426 217.101334,317.582672 218.539230,317.433868 
	C222.613724,317.012115 223.253708,314.955109 223.196106,311.443390 
	C223.026993,301.131409 223.135132,290.814911 223.134766,280.000305 
z"/>
<path fill="#2D074A" opacity="1.000000" stroke="none" 
	d="
M300.804199,107.551880 
	C301.053345,106.081429 301.014465,104.579453 301.734192,103.962753 
	C309.172943,97.588646 316.734131,91.357452 324.611511,85.047905 
	C325.021942,112.029587 325.082153,139.049850 324.700867,166.525024 
	C323.562347,166.947205 322.865356,166.914520 322.168335,166.881836 
	C321.714600,165.238235 321.260834,163.594650 320.814575,161.264343 
	C320.282196,160.010056 319.742371,159.442490 319.202515,158.874924 
	C319.089752,158.204575 318.976959,157.534210 318.854279,156.159775 
	C317.968323,153.926651 317.092316,152.397598 316.216278,150.868561 
	C315.755127,149.225220 315.294006,147.581879 314.833557,145.253143 
	C314.302551,143.997650 313.770844,143.427551 313.239136,142.857452 
	C313.125824,142.185120 313.012543,141.512802 312.881927,140.136169 
	C311.996521,137.904312 311.128479,136.376755 310.260437,134.849197 
	C307.129730,125.876556 303.999023,116.903923 300.804199,107.551880 
z"/>
<path fill="#826D94" opacity="1.000000" stroke="none" 
	d="
M272.890045,181.953644 
	C285.309540,180.452454 297.721191,178.880676 310.153259,177.492004 
	C314.004364,177.061829 317.911041,177.129196 322.178558,177.170959 
	C315.973633,181.449493 309.477631,185.690323 302.773071,189.570847 
	C283.845276,200.526093 264.831909,211.333466 245.486389,222.218353 
	C249.190140,215.893753 253.183563,209.499374 257.350281,203.219971 
	C261.734589,196.612686 266.284607,190.115341 271.159790,183.222748 
	C272.001556,182.568253 272.445801,182.260941 272.890045,181.953644 
z"/>
<path fill="#9683A4" opacity="1.000000" stroke="none" 
	d="
M179.891357,136.568756 
	C175.148499,147.034592 170.488449,157.202148 165.768326,167.341721 
	C165.013016,168.964218 163.988663,170.461487 162.769104,172.107468 
	C162.239548,170.242081 161.851028,168.286270 161.847061,166.329651 
	C161.804291,145.211044 161.848083,124.092262 161.805099,102.973656 
	C161.794296,97.662613 161.558411,92.352028 161.534256,86.653427 
	C162.766113,87.728859 164.349594,89.027916 164.939896,90.681534 
	C169.348038,103.029747 173.495087,115.471214 177.911636,127.816315 
	C178.487045,129.424667 180.132477,130.650192 181.668304,132.069580 
	C182.031006,132.489944 182.007690,132.893784 181.951447,133.598480 
	C181.263794,134.686615 180.609039,135.473907 179.891357,136.568756 
z"/>
<path fill="#898BD1" opacity="1.000000" stroke="none" 
	d="
M262.588257,359.681030 
	C261.870728,364.430908 261.532959,368.867706 260.902008,373.262421 
	C260.723419,374.506134 259.688416,375.626892 259.046204,376.804047 
	C258.107971,375.693298 256.417389,374.620575 256.359009,373.465363 
	C256.074097,367.826569 256.099243,362.160736 256.324585,356.516846 
	C256.371277,355.346771 258.026184,353.140503 258.444824,353.253052 
	C263.560181,354.628510 269.406586,350.526978 274.106567,355.339203 
	C274.614716,355.859497 276.595978,355.483124 277.557587,354.933807 
	C286.274750,349.954376 294.675934,354.596741 294.877441,364.622589 
	C294.937561,367.613831 295.095306,370.634369 294.746887,373.587036 
	C294.609558,374.750854 293.211395,375.765930 292.387360,376.848724 
	C291.637787,375.783386 290.353668,374.771423 290.240936,373.642517 
	C289.928497,370.513062 290.291718,367.319702 290.037476,364.179962 
	C289.744720,360.565063 288.283813,357.684662 283.989685,357.702209 
	C279.711334,357.719696 278.264954,360.577972 277.957703,364.208588 
	C277.734100,366.850677 278.193542,369.572601 277.780792,372.168640 
	C277.522308,373.794312 276.211151,375.252563 275.372345,376.785950 
	C274.612122,375.319519 273.408234,373.915558 273.190857,372.372650 
	C272.823242,369.763306 273.208221,367.058289 273.047943,364.407318 
	C272.654358,357.897522 268.696686,355.968872 262.588257,359.681030 
z"/>
<path fill="#8487D0" opacity="1.000000" stroke="none" 
	d="
M367.339844,374.851135 
	C361.926422,370.407745 360.488678,366.391174 362.263458,361.247375 
	C364.094604,355.940186 368.322693,352.937286 373.946289,352.949921 
	C379.494263,352.962372 383.403870,355.742218 385.232300,360.974670 
	C386.729065,365.258057 385.687378,366.878510 381.187592,366.965881 
	C376.618958,367.054626 372.047272,366.985474 367.201752,366.985474 
	C369.549225,372.326416 373.204712,373.382263 378.235291,371.036407 
	C379.431152,370.478760 381.012390,370.747406 382.416351,370.635925 
	C381.793884,372.007538 381.536285,373.845886 380.484375,374.668213 
	C376.413666,377.850616 372.019226,378.037964 367.339844,374.851135 
M374.365082,357.029449 
	C370.890656,357.120819 368.034363,358.075256 366.984924,362.355408 
	C371.556580,362.355408 375.760681,362.355408 379.964783,362.355408 
	C380.176575,361.900391 380.388397,361.445374 380.600220,360.990387 
	C378.787933,359.687988 376.975677,358.385620 374.365082,357.029449 
z"/>
<path fill="#8487D0" opacity="1.000000" stroke="none" 
	d="
M204.380707,370.906250 
	C205.950882,370.702026 207.201096,370.687469 208.451294,370.672943 
	C208.054886,371.825439 207.951859,373.234131 207.209305,374.084290 
	C204.556107,377.122162 198.856277,377.999054 195.223572,376.163208 
	C189.844116,373.444641 187.237747,368.507416 188.079391,362.629913 
	C188.705490,358.257782 192.905716,353.832733 197.139526,353.084961 
	C204.071167,351.860626 210.299774,355.705322 211.652802,362.086487 
	C212.284363,365.065033 211.480301,367.016541 207.986893,366.990021 
	C203.387909,366.955109 198.788467,366.981445 194.031250,366.981445 
	C195.398361,372.308472 198.187180,373.285400 204.380707,370.906250 
M195.145111,362.869171 
	C198.791824,362.869171 202.438553,362.869171 206.085266,362.869171 
	C206.290039,362.108429 206.494812,361.347687 206.699600,360.586945 
	C204.669464,359.402466 202.656784,357.313934 200.604568,357.274353 
	C198.309021,357.230072 195.943756,358.979034 193.718506,360.155151 
	C193.514023,360.263245 194.103821,361.874237 195.145111,362.869171 
z"/>
<path fill="#8588D0" opacity="1.000000" stroke="none" 
	d="
M321.849854,361.762207 
	C321.908325,366.933136 321.908325,371.683258 321.908325,376.066284 
	C318.010071,376.398682 314.880615,376.674530 311.749542,376.930542 
	C305.240875,377.462738 299.287628,373.163025 298.168335,367.132690 
	C297.139282,361.588501 300.650635,355.294342 305.786224,353.477539 
	C312.508331,351.099426 318.264496,353.927612 321.849854,361.762207 
M314.911255,370.714294 
	C317.951111,367.870422 319.170807,364.294434 316.424408,361.045502 
	C314.769135,359.087433 311.279846,357.070221 309.156464,357.538116 
	C306.683655,358.083008 303.947174,360.975220 302.954193,363.491669 
	C302.249054,365.278534 303.587036,369.384674 305.182343,370.218323 
	C307.693359,371.530640 311.188080,370.960663 314.911255,370.714294 
z"/>
<path fill="#898CD0" opacity="1.000000" stroke="none" 
	d="
M155.991806,372.213867 
	C161.248688,371.607391 163.215073,368.642395 163.178925,363.992310 
	C163.158249,361.331665 162.944321,358.629456 163.350403,356.029205 
	C163.519348,354.947296 165.077164,354.082275 166.003418,353.118622 
	C166.659164,354.109650 167.853638,355.085449 167.882156,356.094208 
	C168.051239,362.076691 168.044586,368.069977 167.842728,374.051086 
	C167.810730,374.999268 166.569473,376.610962 165.750458,376.703400 
	C162.610031,377.057861 159.413620,376.906281 156.238525,376.965485 
	C150.172165,377.078583 144.588669,372.430450 143.542633,365.871552 
	C143.051025,362.789093 143.192764,359.547363 143.508621,356.424438 
	C143.627182,355.252167 145.052460,354.212067 145.881973,353.111694 
	C146.783844,354.281769 148.236313,355.352600 148.468903,356.643280 
	C148.905029,359.063477 148.628174,361.611023 148.660568,364.105408 
	C148.720535,368.723633 150.670029,371.736053 155.991806,372.213867 
z"/>
<path fill="#8689D0" opacity="1.000000" stroke="none" 
	d="
M112.102341,366.295532 
	C111.496208,360.051758 109.055313,357.501740 104.257225,357.652679 
	C99.715561,357.795532 97.067986,361.008453 97.002487,366.479034 
	C96.972610,368.974854 97.170082,371.496185 96.860214,373.954987 
	C96.731697,374.974670 95.545349,375.861023 94.840065,376.808014 
	C94.077560,376.057343 92.677261,375.326691 92.652962,374.552856 
	C92.449623,368.078827 92.424744,361.595062 92.581299,355.119934 
	C92.597946,354.431183 94.075157,353.283875 94.956123,353.199585 
	C97.971588,352.911163 101.023613,353.014771 104.061172,352.945526 
	C111.075462,352.785645 116.559059,357.862793 116.737724,364.802490 
	C116.819023,367.960541 116.852211,371.135406 116.592735,374.276642 
	C116.519844,375.159180 115.331367,375.949585 114.654602,376.782257 
	C113.829857,375.931274 112.432480,375.164673 112.292244,374.212830 
	C111.931870,371.766937 112.129051,369.238861 112.102341,366.295532 
z"/>
<path fill="#898BCF" opacity="1.000000" stroke="none" 
	d="
M140.610199,370.729614 
	C139.052277,375.430511 136.124771,377.443726 131.438400,376.999176 
	C128.970566,376.765137 126.438438,377.150208 123.985374,376.848663 
	C123.010155,376.728790 122.170258,375.508026 121.268753,374.788452 
	C122.129158,373.962341 122.916695,372.538208 123.863708,372.422852 
	C126.646149,372.083771 129.517014,372.475189 132.301254,372.143799 
	C133.506744,372.000305 134.584763,370.785919 135.720673,370.057922 
	C134.603058,369.055939 133.636459,367.631775 132.327881,367.163727 
	C130.842484,366.632385 129.020752,367.140381 127.398750,366.872498 
	C123.489624,366.226837 121.121483,364.008026 121.103279,359.844025 
	C121.085533,355.785858 123.670425,353.171387 127.942970,352.948029 
	C130.094757,352.835541 132.285568,352.720062 134.402939,353.011383 
	C135.479950,353.159576 136.433487,354.205200 137.442841,354.845154 
	C136.446823,355.758209 135.581848,356.952698 134.413910,357.496643 
	C133.452530,357.944397 132.039307,357.346558 130.991226,357.700470 
	C129.236252,358.293091 127.612640,359.274719 125.933754,360.092651 
	C127.545082,360.784546 129.122711,361.967194 130.773758,362.080627 
	C136.877441,362.499908 139.419174,364.465454 140.610199,370.729614 
z"/>
<path fill="#888ACF" opacity="1.000000" stroke="none" 
	d="
M236.530212,372.274719 
	C239.132904,372.262360 241.351212,372.538727 243.446579,372.150848 
	C244.754868,371.908722 245.877716,370.664581 247.083771,369.870117 
	C245.904236,368.929871 244.852631,367.641693 243.509003,367.147614 
	C242.175323,366.657196 240.543274,367.025208 239.049850,366.913116 
	C234.750870,366.590576 232.713959,363.676117 232.638382,359.924103 
	C232.560043,356.034729 234.978226,353.417694 239.061920,352.995483 
	C241.206573,352.773743 243.427063,352.688690 245.541946,353.010651 
	C246.718475,353.189758 247.748444,354.331665 248.844452,355.039673 
	C247.767227,355.881378 246.802643,357.118591 245.584503,357.465424 
	C244.035645,357.906464 242.221603,357.372894 240.636902,357.746887 
	C239.604630,357.990509 238.777069,359.101501 237.857788,359.823914 
	C238.723434,360.595612 239.473999,361.714264 240.484436,362.049438 
	C241.691177,362.449707 243.129456,362.086578 244.451523,362.216370 
	C249.096329,362.672394 252.102356,365.780579 251.986099,369.915680 
	C251.865067,374.220795 248.907700,376.856476 244.026505,376.946899 
	C241.527725,376.993195 239.013596,377.106995 236.533859,376.884399 
	C235.396347,376.782288 234.324966,375.943207 233.223602,375.438354 
	C234.180359,374.386475 235.137115,373.334564 236.530212,372.274719 
z"/>
<path fill="#8D8FD1" opacity="1.000000" stroke="none" 
	d="
M345.036285,353.126556 
	C345.133728,350.337524 345.020782,347.987732 345.439941,345.737030 
	C345.592102,344.920074 347.015015,344.339783 347.858093,343.651489 
	C348.511322,344.474243 349.816956,345.391632 349.713531,346.104706 
	C348.951080,351.362701 351.470673,353.583282 356.950317,353.401611 
	C356.977753,353.944733 357.005157,354.487823 357.032593,355.030945 
	C354.987762,356.245911 352.942963,357.460846 349.897614,359.270294 
	C349.897614,361.131256 349.808594,364.058899 349.921509,366.978699 
	C350.046265,370.204926 350.321655,373.307312 355.102966,371.422241 
	C355.904938,371.106049 357.252686,372.174255 358.348267,372.602783 
	C357.766815,373.703400 357.404449,375.502258 356.560699,375.767029 
	C354.462097,376.425537 351.363281,377.392181 350.086670,376.402527 
	C347.849487,374.668335 345.681519,371.712158 345.272003,368.998169 
	C344.513245,363.969757 345.043213,358.746857 345.036285,353.126556 
z"/>
<path fill="#8D8FD1" opacity="1.000000" stroke="none" 
	d="
M177.283936,363.894043 
	C177.063644,367.447601 177.117935,370.608398 176.806671,373.732788 
	C176.699539,374.808167 175.680374,375.792664 175.077835,376.818695 
	C174.110428,375.912415 172.344406,375.039307 172.305206,374.094513 
	C172.051025,367.967896 172.070435,361.822174 172.283844,355.692566 
	C172.315170,354.793060 173.770889,353.316193 174.710281,353.192780 
	C177.532196,352.821960 180.433472,352.844299 183.285370,353.017151 
	C184.411743,353.085388 185.489487,353.955872 186.589371,354.461060 
	C185.695847,355.502350 184.879456,356.624268 183.892899,357.568329 
	C181.780258,359.589905 179.579712,361.519623 177.283936,363.894043 
z"/>
<path fill="#8C8ED1" opacity="1.000000" stroke="none" 
	d="
M389.192383,366.930237 
	C389.190247,365.285522 389.060455,364.110321 389.211456,362.972443 
	C389.645569,359.701233 389.094604,355.117737 390.995422,353.544434 
	C393.025177,351.864410 397.416962,352.904785 400.766022,353.041779 
	C401.648193,353.077820 402.487427,354.163483 403.346375,354.767181 
	C402.717590,355.640778 402.184814,357.178375 401.445160,357.285339 
	C393.958069,358.368011 393.808838,363.671326 393.791718,369.485291 
	C393.784515,371.933350 392.157349,376.546051 391.890686,376.500763 
	C387.396667,375.737335 389.881104,371.941895 389.218506,369.396027 
	C389.057159,368.776062 389.193512,368.078644 389.192383,366.930237 
z"/>
<path fill="#8487CF" opacity="1.000000" stroke="none" 
	d="
M334.125122,359.040649 
	C329.700256,362.956421 331.395081,367.887329 330.875122,372.368347 
	C330.697968,373.895111 329.636078,375.319183 328.978485,376.790192 
	C328.085480,375.263672 326.524170,373.780212 326.422455,372.202667 
	C326.092682,367.087219 326.264984,361.936981 326.310364,356.800751 
	C326.335815,353.917450 327.291321,352.474518 330.647247,353.521790 
	C332.171509,353.997467 334.096405,353.006866 335.788391,353.180450 
	C337.375458,353.343292 338.894989,354.164307 340.444244,354.695740 
	C339.340332,355.683044 338.303925,356.764221 337.108368,357.624115 
	C336.334259,358.180817 335.327545,358.414001 334.125122,359.040649 
z"/>
<path fill="#8588C8" opacity="1.000000" stroke="none" 
	d="
M88.037552,366.919373 
	C88.036682,368.896423 88.314568,370.456573 87.963409,371.859283 
	C87.536545,373.564331 86.579521,375.136688 85.851837,376.766449 
	C84.998627,375.048706 83.640755,373.397278 83.404449,371.598511 
	C82.998116,368.505432 83.290298,365.320526 83.290543,362.174164 
	C83.290909,357.537415 83.107430,352.888885 83.401962,348.270874 
	C83.494736,346.816345 84.870438,345.443604 85.658951,344.033447 
	C86.451454,345.372742 87.872475,346.686462 87.928268,348.055756 
	C88.177498,354.172760 88.037170,360.305603 88.037552,366.919373 
z"/>
<path fill="#4D2D65" opacity="1.000000" stroke="none" 
	d="
M322.148315,167.252411 
	C322.865356,166.914520 323.562347,166.947205 324.610413,166.985657 
	C325.056610,168.392944 325.151733,169.794510 325.156128,171.612030 
	C324.086334,170.559662 323.107300,169.091324 322.148315,167.252411 
z"/>
<path fill="#826D94" opacity="1.000000" stroke="none" 
	d="
M323.382721,177.158173 
	C323.460815,176.487167 323.884216,175.790115 324.639526,175.044617 
	C324.556976,175.708145 324.142487,176.420135 323.382721,177.158173 
z"/>
<path fill="#573A6F" opacity="1.000000" stroke="none" 
	d="
M238.605835,219.771637 
	C239.062622,219.584229 239.546463,219.561707 240.030289,219.539185 
	C239.922958,219.742691 239.815628,219.946198 239.407593,220.277069 
	C238.886154,220.311722 238.728149,220.155762 238.605835,219.771637 
z"/>
<path fill="#411E5B" opacity="1.000000" stroke="none" 
	d="
M272.913635,181.562515 
	C272.445801,182.260941 272.001556,182.568253 271.275208,182.894577 
	C263.341095,178.615738 255.772659,174.160248 248.020935,170.050507 
	C227.471207,159.155670 206.833618,148.426620 186.266647,137.564087 
	C185.044754,136.918732 184.136841,135.678864 183.050415,134.363968 
	C205.273697,128.524689 227.524261,123.016251 249.786789,117.556519 
	C265.588348,113.681282 281.406006,109.871750 297.620178,106.135696 
	C298.023834,106.238510 297.975037,106.579582 297.969482,106.750847 
	C293.344940,120.540291 288.707977,134.152390 284.112640,147.778549 
	C280.361664,158.900803 276.660492,170.039810 272.913635,181.562515 
z"/>
<path fill="#FAF9FC" opacity="1.000000" stroke="none" 
	d="
M68.499992,276.793854 
	C70.584839,286.852814 70.078644,296.417236 67.378319,305.850983 
	C65.459274,312.555328 61.766846,317.608459 54.184135,318.345551 
	C46.736641,319.069489 41.383396,315.790070 37.769474,307.904449 
	C32.069870,295.467865 32.323864,282.684570 36.542591,269.930389 
	C38.838894,262.988129 43.624962,258.787018 51.304066,258.611237 
	C58.922859,258.436798 63.196178,262.958740 66.036774,269.295959 
	C67.050797,271.558167 67.625061,274.017517 68.499992,276.793854 
z"/>
<path fill="#F5F4F9" opacity="1.000000" stroke="none" 
	d="
M118.980019,289.813904 
	C113.700676,290.395935 111.639961,288.643341 111.984695,283.409210 
	C112.431908,276.619171 112.185188,269.775879 112.056824,262.958923 
	C112.001106,260.000488 113.144295,258.722839 116.096878,258.639923 
	C122.206116,258.468384 128.575516,258.289551 132.267654,264.113800 
	C136.125168,270.198975 135.318054,276.948242 132.389679,283.246185 
	C129.883545,288.635986 124.883415,289.871094 118.980019,289.813904 
z"/>
<path fill="#4D2D65" opacity="1.000000" stroke="none" 
	d="
M310.217834,135.212296 
	C311.128479,136.376755 311.996521,137.904312 312.831970,139.798889 
	C311.924652,138.635742 311.049927,137.105560 310.217834,135.212296 
z"/>
<path fill="#4D2D65" opacity="1.000000" stroke="none" 
	d="
M316.184082,151.230896 
	C317.092316,152.397598 317.968323,153.926651 318.799194,155.824371 
	C317.886658,154.659790 317.019226,153.126526 316.184082,151.230896 
z"/>
<path fill="#4D2D65" opacity="1.000000" stroke="none" 
	d="
M313.198181,143.172516 
	C313.770844,143.427551 314.302551,143.997650 314.771973,144.891266 
	C314.192200,144.639053 313.674713,144.063309 313.198181,143.172516 
z"/>
<path fill="#4D2D65" opacity="1.000000" stroke="none" 
	d="
M319.168274,159.189484 
	C319.742371,159.442490 320.282196,160.010056 320.753418,160.902527 
	C320.167877,160.652969 319.650940,160.078506 319.168274,159.189484 
z"/>
<path fill="#E3E3EC" opacity="1.000000" stroke="none" 
	d="
M374.764252,357.056335 
	C376.975677,358.385620 378.787933,359.687988 380.600220,360.990387 
	C380.388397,361.445374 380.176575,361.900391 379.964783,362.355408 
	C375.760681,362.355408 371.556580,362.355408 366.984924,362.355408 
	C368.034363,358.075256 370.890656,357.120819 374.764252,357.056335 
z"/>
<path fill="#E2E2EC" opacity="1.000000" stroke="none" 
	d="
M194.734955,362.828247 
	C194.103821,361.874237 193.514023,360.263245 193.718506,360.155151 
	C195.943756,358.979034 198.309021,357.230072 200.604568,357.274353 
	C202.656784,357.313934 204.669464,359.402466 206.699600,360.586945 
	C206.494812,361.347687 206.290039,362.108429 206.085266,362.869171 
	C202.438553,362.869171 198.791824,362.869171 194.734955,362.828247 
z"/>
<path fill="#F3F4F9" opacity="1.000000" stroke="none" 
	d="
M314.588806,370.950958 
	C311.188080,370.960663 307.693359,371.530640 305.182343,370.218323 
	C303.587036,369.384674 302.249054,365.278534 302.954193,363.491669 
	C303.947174,360.975220 306.683655,358.083008 309.156464,357.538116 
	C311.279846,357.070221 314.769135,359.087433 316.424408,361.045502 
	C319.170807,364.294434 317.951111,367.870422 314.588806,370.950958 
z"/>
</svg>